# xmcd
#
# Track frame offsets:
#	150
#	18257
#	34672
#	71155
#
# Disc length: 2111 seconds
#
# Revision: 4
# Processed by: cddbd v1.5.2PL0 Copyright (c) Steve Scherf et al.
# Submitted via: audiograbber 1.83.01
#
DISCID=2c083d04
DTITLE=Toni Braxton - Maxi
DYEAR=2000
DGENRE=Soul
TTITLE0=He wasn't man enough ( Radio Version )
TTITLE1=You're makin me high ( Classic Version )
TTITLE2=He wasn't man enough ( Extended Version )
TTITLE3=Data Track
EXTD=YEAR: 2000 ID3G: 42
EXTT0=
EXTT1=
EXTT2=
EXTT3=
PLAYORDER=
